<svg width="78" height="78" viewBox="0 0 78 78" fill="none" xmlns="http://www.w3.org/2000/svg">
<path fill-rule="evenodd" clip-rule="evenodd" d="M75.0454 39C75.0454 58.9074 58.9074 75.0454 39 75.0454C19.0926 75.0454 2.95455 58.9074 2.95455 39C2.95455 19.0926 19.0926 2.95455 39 2.95455C58.9074 2.95455 75.0454 19.0926 75.0454 39ZM78 39C78 60.5391 60.5391 78 39 78C17.4609 78 0 60.5391 0 39C0 17.4609 17.4609 0 39 0C60.5391 0 78 17.4609 78 39ZM37.0804 37.3894C45.9224 28.5295 53.3704 21.1456 53.6313 20.9808C54.2489 20.5906 55.5328 20.5805 56.11 20.9612C56.3428 21.1148 56.691 21.4411 56.8835 21.6861C57.3609 22.2931 57.3724 23.6196 56.9058 24.2616C56.7254 24.5099 49.2963 31.9904 40.3966 40.8851L24.2154 57.0571L23.27 57.056C21.9347 57.0546 21.1603 56.4955 20.8123 55.2815C20.7679 55.1267 20.7182 55.0021 20.6951 54.8727C20.5248 53.9224 21.7848 52.7158 37.0804 37.3894ZM28.0531 27.9222C31.3376 24.6419 34.203 21.8885 34.4204 21.8036C35.9448 21.2078 37.5827 22.3692 37.5827 24.046C37.5827 24.465 37.481 25 37.3567 25.235C37.0103 25.8897 25.7061 37.0881 25.2 37.2781C23.7477 37.8231 22.3371 37.1286 21.9259 35.6658C21.5704 34.4019 21.5918 34.375 28.0531 27.9222ZM46.5438 46.1173C50.9981 41.6805 52.4965 40.2803 52.9198 40.1593C54.7539 39.6347 56.5238 41.3999 55.9394 43.171C55.8171 43.5419 53.9704 45.4898 49.7178 49.734C44.4575 54.9835 43.5934 55.7833 43.0811 55.8766C42.0932 56.0563 40.9366 55.5141 40.4978 54.6656C40.1786 54.0481 40.1715 52.9603 40.4827 52.3694C40.6139 52.1206 43.3414 49.3071 46.5438 46.1173Z" fill="url(#paint0_linear_14_338)"/>
<defs>
<linearGradient id="paint0_linear_14_338" x1="0" y1="0" x2="78" y2="78" gradientUnits="userSpaceOnUse">
<stop stop-color="#47A0F7"/>
<stop offset="0.513542" stop-color="#46C5E3"/>
<stop offset="1" stop-color="#4161FC"/>
</linearGradient>
</defs>
</svg>
