<svg width="49" height="49" viewBox="0 0 49 49" fill="none" xmlns="http://www.w3.org/2000/svg">
<path d="M44.639 0H14.161C11.76 0 9.8 1.96 9.8 4.361V34.839C9.8 37.24 11.76 39.2 14.161 39.2H44.639C47.04 39.2 49 37.2645 49 34.839V4.361C49 1.96 47.04 0 44.639 0ZM22.197 31.85H17.15V26.803L31.997 11.956L37.044 17.003L22.197 31.85ZM40.915 13.1075L38.465 15.5575L33.4425 10.535L35.8925 8.085C36.407 7.546 37.2645 7.546 37.779 8.085L40.915 11.221C41.454 11.7355 41.454 12.593 40.915 13.1075ZM4.9 9.8H0V44.1C0 46.8195 2.205 49 4.9 49H39.2V44.1H4.9V9.8Z" fill="url(#paint0_linear_14_404)"/>
<defs>
<linearGradient id="paint0_linear_14_404" x1="-0.164366" y1="-0.164413" x2="49.1645" y2="49.1644" gradientUnits="userSpaceOnUse">
<stop stop-color="#4161FC"/>
<stop offset="1" stop-color="#46C5E3"/>
</linearGradient>
</defs>
</svg>
