<svg width="43" height="49" viewBox="0 0 43 49" fill="none" xmlns="http://www.w3.org/2000/svg">
<path d="M34.8649 28C35.6551 28 36.4222 28.0933 37.1892 28.21V21C37.1892 18.4333 35.1205 16.3333 32.5405 16.3333H30.2162V11.6667C30.2162 5.22667 25.0097 0 18.5946 0C12.1795 0 6.97297 5.22667 6.97297 11.6667H11.6216C11.6216 7.79333 14.7362 4.66667 18.5946 4.66667C22.453 4.66667 25.5676 7.79333 25.5676 11.6667V16.3333H4.64865C2.06865 16.3333 0 18.4333 0 21V44.3333C0 46.9 2.06865 49 4.64865 49H22.8016C21.6162 46.9467 20.9189 44.5667 20.9189 42C20.9189 34.2767 27.1714 28 34.8649 28ZM18.5946 37.3333C16.0378 37.3333 13.9459 35.2567 13.9459 32.6667C13.9459 30.0767 16.0378 28 18.5946 28C21.1514 28 23.2432 30.1 23.2432 32.6667C23.2432 35.2333 21.1746 37.3333 18.5946 37.3333ZM43 37.9167L31.9595 49L25.5676 42L28.2638 39.2933L31.9595 43.0033L40.3038 34.6267L43 37.9167Z" fill="url(#paint0_linear_14_405)"/>
<defs>
<linearGradient id="paint0_linear_14_405" x1="-0.358636" y1="0.105672" x2="43.9915" y2="48.935" gradientUnits="userSpaceOnUse">
<stop stop-color="#4161FC"/>
<stop offset="1" stop-color="#46C5E3"/>
</linearGradient>
</defs>
</svg>
