<svg width="54" height="45" viewBox="0 0 54 45" fill="none" xmlns="http://www.w3.org/2000/svg">
<path d="M51.75 20.25H40.5C39.9033 20.25 39.331 20.4871 38.909 20.909C38.4871 21.331 38.25 21.9033 38.25 22.5V42.75C38.25 43.3467 38.4871 43.919 38.909 44.341C39.331 44.7629 39.9033 45 40.5 45H51.75C52.3467 45 52.919 44.7629 53.341 44.341C53.7629 43.919 54 43.3467 54 42.75V22.5C54 21.9033 53.7629 21.331 53.341 20.909C52.919 20.4871 52.3467 20.25 51.75 20.25ZM51.75 40.5H40.5V24.75H51.75V40.5ZM45 0H4.5C2.0025 0 0 2.0025 0 4.5V31.5C0 32.6935 0.474106 33.8381 1.31802 34.682C2.16193 35.5259 3.30653 36 4.5 36H20.25V40.5H15.75V45H33.75V40.5H29.25V36H33.75V31.5H4.5V4.5H45V15.75H49.5V4.5C49.5 2.0025 47.475 0 45 0ZM26.9325 15.75L24.75 9L22.5675 15.75H15.75L21.3075 19.71L19.1925 26.2575L24.75 22.2075L30.3075 26.2575L28.1925 19.71L33.75 15.75H26.9325Z" fill="url(#paint0_linear_14_406)"/>
<defs>
<linearGradient id="paint0_linear_14_406" x1="-5.04899e-07" y1="0.0608187" x2="54.1481" y2="44.7598" gradientUnits="userSpaceOnUse">
<stop stop-color="#4161FC"/>
<stop offset="1" stop-color="#46C5E3"/>
</linearGradient>
</defs>
</svg>
